<mxfile host="app.diagrams.net" modified="2021-04-07T07:07:29.474Z" agent="5.0 (Windows NT 10.0; WOW64) AppleWebKit/537.36 (KHTML, like Gecko) Chrome/69.0.3497.12 Safari/537.36" etag="E7nGWqm11dyLiYnhGP8X" version="14.5.8" type="github">
  <diagram id="Ymm8_JE3hJP9QU7Ny3Nn" name="Page-1">
    <mxGraphModel dx="1422" dy="762" grid="1" gridSize="10" guides="1" tooltips="1" connect="1" arrows="1" fold="1" page="1" pageScale="1" pageWidth="827" pageHeight="1169" background="#DAD2D8" math="0" shadow="0">
      <root>
        <mxCell id="0" />
        <mxCell id="1" parent="0" />
        <mxCell id="lgnPLCaHQuWidmGqo9kg-18" value="" style="shape=ext;double=1;whiteSpace=wrap;html=1;aspect=fixed;rounded=1;shadow=0;glass=0;sketch=1;startSize=0;strokeColor=#0F8B8D;fillColor=#FAE5C7;fontColor=#143642;" vertex="1" parent="1">
          <mxGeometry x="177.5" y="170" width="395" height="395" as="geometry" />
        </mxCell>
        <mxCell id="lgnPLCaHQuWidmGqo9kg-2" value="&lt;font style=&quot;font-size: 18px;&quot;&gt;客户端&lt;/font&gt;" style="ellipse;shape=cloud;whiteSpace=wrap;html=1;rounded=0;shadow=0;glass=0;sketch=1;fillColor=#FAE5C7;strokeColor=#0F8B8D;fontSize=18;fontStyle=1;fontFamily=Comic Sans MS;fontColor=#143642;" vertex="1" parent="1">
          <mxGeometry x="320" y="80" width="110" height="70" as="geometry" />
        </mxCell>
        <mxCell id="lgnPLCaHQuWidmGqo9kg-49" style="edgeStyle=orthogonalEdgeStyle;rounded=0;orthogonalLoop=1;jettySize=auto;html=1;exitX=0.875;exitY=0.5;exitDx=0;exitDy=0;exitPerimeter=0;startSize=0;fontFamily=Comic Sans MS;fontSize=20;fontColor=#143642;curved=1;strokeColor=#A8201A;strokeWidth=3;labelBackgroundColor=#DAD2D8;" edge="1" parent="1" source="lgnPLCaHQuWidmGqo9kg-19">
          <mxGeometry relative="1" as="geometry">
            <mxPoint x="620" y="240" as="targetPoint" />
          </mxGeometry>
        </mxCell>
        <mxCell id="lgnPLCaHQuWidmGqo9kg-19" value="&lt;font style=&quot;font-size: 18px;&quot;&gt;连接器&lt;/font&gt;" style="ellipse;shape=cloud;whiteSpace=wrap;html=1;rounded=0;shadow=0;glass=0;sketch=1;fillColor=#FAE5C7;strokeColor=#0F8B8D;fontSize=18;fontStyle=1;fontFamily=Comic Sans MS;fontColor=#143642;" vertex="1" parent="1">
          <mxGeometry x="320" y="190" width="110" height="70" as="geometry" />
        </mxCell>
        <mxCell id="lgnPLCaHQuWidmGqo9kg-20" value="&lt;font style=&quot;font-size: 18px;&quot;&gt;查询缓存&lt;/font&gt;" style="ellipse;shape=cloud;whiteSpace=wrap;html=1;rounded=0;shadow=0;glass=0;sketch=1;fillColor=#FAE5C7;strokeColor=#0F8B8D;fontFamily=Comic Sans MS;fontStyle=1;fontSize=18;fontColor=#143642;" vertex="1" parent="1">
          <mxGeometry x="220" y="270" width="110" height="70" as="geometry" />
        </mxCell>
        <mxCell id="lgnPLCaHQuWidmGqo9kg-50" style="edgeStyle=orthogonalEdgeStyle;curved=1;rounded=0;orthogonalLoop=1;jettySize=auto;html=1;exitX=0.875;exitY=0.5;exitDx=0;exitDy=0;exitPerimeter=0;startSize=0;fontFamily=Comic Sans MS;fontSize=20;fontColor=#143642;strokeColor=#A8201A;strokeWidth=3;labelBackgroundColor=#DAD2D8;" edge="1" parent="1" source="lgnPLCaHQuWidmGqo9kg-21">
          <mxGeometry relative="1" as="geometry">
            <mxPoint x="620" y="330" as="targetPoint" />
          </mxGeometry>
        </mxCell>
        <mxCell id="lgnPLCaHQuWidmGqo9kg-21" value="&lt;font style=&quot;font-size: 18px;&quot;&gt;分析器&lt;/font&gt;" style="ellipse;shape=cloud;whiteSpace=wrap;html=1;rounded=0;shadow=0;glass=0;sketch=1;fillColor=#FAE5C7;strokeColor=#0F8B8D;fontFamily=Comic Sans MS;fontSize=18;fontStyle=1;fontColor=#143642;" vertex="1" parent="1">
          <mxGeometry x="414" y="270" width="110" height="70" as="geometry" />
        </mxCell>
        <mxCell id="lgnPLCaHQuWidmGqo9kg-51" style="edgeStyle=orthogonalEdgeStyle;curved=1;rounded=0;orthogonalLoop=1;jettySize=auto;html=1;exitX=0.875;exitY=0.5;exitDx=0;exitDy=0;exitPerimeter=0;startSize=0;fontFamily=Comic Sans MS;fontSize=20;fontColor=#143642;strokeColor=#A8201A;strokeWidth=3;labelBackgroundColor=#DAD2D8;" edge="1" parent="1" source="lgnPLCaHQuWidmGqo9kg-22">
          <mxGeometry relative="1" as="geometry">
            <mxPoint x="620" y="420" as="targetPoint" />
          </mxGeometry>
        </mxCell>
        <mxCell id="lgnPLCaHQuWidmGqo9kg-22" value="&lt;font style=&quot;font-size: 18px;&quot;&gt;优化器&lt;/font&gt;" style="ellipse;shape=cloud;whiteSpace=wrap;html=1;rounded=0;shadow=0;glass=0;sketch=1;fillColor=#FAE5C7;strokeColor=#0F8B8D;fontFamily=Comic Sans MS;fontStyle=1;fontSize=18;fontColor=#143642;" vertex="1" parent="1">
          <mxGeometry x="414" y="380" width="110" height="70" as="geometry" />
        </mxCell>
        <mxCell id="lgnPLCaHQuWidmGqo9kg-52" style="edgeStyle=orthogonalEdgeStyle;curved=1;rounded=0;orthogonalLoop=1;jettySize=auto;html=1;exitX=0.875;exitY=0.5;exitDx=0;exitDy=0;exitPerimeter=0;startSize=0;fontFamily=Comic Sans MS;fontSize=20;fontColor=#143642;strokeColor=#A8201A;strokeWidth=3;labelBackgroundColor=#DAD2D8;" edge="1" parent="1" source="lgnPLCaHQuWidmGqo9kg-23">
          <mxGeometry relative="1" as="geometry">
            <mxPoint x="620" y="500" as="targetPoint" />
          </mxGeometry>
        </mxCell>
        <mxCell id="lgnPLCaHQuWidmGqo9kg-23" value="&lt;font style=&quot;font-size: 18px&quot; face=&quot;Comic Sans MS&quot;&gt;&lt;b&gt;执行器&lt;/b&gt;&lt;/font&gt;" style="ellipse;shape=cloud;whiteSpace=wrap;html=1;rounded=0;shadow=0;glass=0;sketch=1;fillColor=#FAE5C7;strokeColor=#0F8B8D;fontColor=#143642;" vertex="1" parent="1">
          <mxGeometry x="414" y="490" width="110" height="70" as="geometry" />
        </mxCell>
        <mxCell id="lgnPLCaHQuWidmGqo9kg-31" value="" style="html=1;shadow=0;dashed=0;align=center;verticalAlign=middle;shape=mxgraph.arrows2.arrow;dy=0.6;dx=18;direction=south;notch=3;rounded=1;glass=0;sketch=1;startSize=0;fillColor=#FAE5C7;strokeColor=#0F8B8D;fontColor=#143642;" vertex="1" parent="1">
          <mxGeometry x="365" y="150" width="20" height="40" as="geometry" />
        </mxCell>
        <mxCell id="lgnPLCaHQuWidmGqo9kg-32" value="" style="html=1;shadow=0;dashed=0;align=center;verticalAlign=middle;shape=mxgraph.arrows2.arrow;dy=0.6;dx=18;direction=south;notch=3;rounded=1;glass=0;sketch=1;startSize=0;fillColor=#FAE5C7;strokeColor=#0F8B8D;rotation=45;fontColor=#143642;" vertex="1" parent="1">
          <mxGeometry x="300" y="240" width="20" height="40" as="geometry" />
        </mxCell>
        <mxCell id="lgnPLCaHQuWidmGqo9kg-33" value="" style="html=1;shadow=0;dashed=0;align=center;verticalAlign=middle;shape=mxgraph.arrows2.arrow;dy=0.6;dx=18;direction=south;notch=3;rounded=1;glass=0;sketch=1;startSize=0;fillColor=#FAE5C7;strokeColor=#0F8B8D;rotation=-45;fontColor=#143642;" vertex="1" parent="1">
          <mxGeometry x="430" y="240" width="20" height="40" as="geometry" />
        </mxCell>
        <mxCell id="lgnPLCaHQuWidmGqo9kg-35" value="" style="html=1;shadow=0;dashed=0;align=center;verticalAlign=middle;shape=mxgraph.arrows2.arrow;dy=0.6;dx=18;direction=south;notch=3;rounded=1;glass=0;sketch=1;startSize=0;fillColor=#FAE5C7;strokeColor=#0F8B8D;fontColor=#143642;" vertex="1" parent="1">
          <mxGeometry x="459" y="340" width="20" height="40" as="geometry" />
        </mxCell>
        <mxCell id="lgnPLCaHQuWidmGqo9kg-37" value="" style="html=1;shadow=0;dashed=0;align=center;verticalAlign=middle;shape=mxgraph.arrows2.arrow;dy=0.6;dx=18;direction=south;notch=3;rounded=1;glass=0;sketch=1;startSize=0;fillColor=#FAE5C7;strokeColor=#0F8B8D;fontColor=#143642;" vertex="1" parent="1">
          <mxGeometry x="459" y="450" width="20" height="40" as="geometry" />
        </mxCell>
        <mxCell id="lgnPLCaHQuWidmGqo9kg-39" value="&lt;font style=&quot;font-size: 24px&quot; face=&quot;Comic Sans MS&quot;&gt;&lt;b&gt;Server 层&lt;/b&gt;&lt;/font&gt;" style="rounded=0;whiteSpace=wrap;html=1;shadow=0;glass=1;sketch=1;startSize=0;align=left;fillColor=#FAE5C7;strokeColor=#0F8B8D;fontColor=#143642;" vertex="1" parent="1">
          <mxGeometry x="200" y="480" width="120" height="60" as="geometry" />
        </mxCell>
        <mxCell id="lgnPLCaHQuWidmGqo9kg-41" value="" style="rounded=1;whiteSpace=wrap;html=1;shadow=0;glass=1;sketch=1;startSize=0;strokeColor=#0F8B8D;fillColor=#FAE5C7;fontColor=#143642;" vertex="1" parent="1">
          <mxGeometry x="190" y="605" width="370" height="105" as="geometry" />
        </mxCell>
        <mxCell id="lgnPLCaHQuWidmGqo9kg-44" value="存储&lt;br style=&quot;font-size: 20px;&quot;&gt;引擎" style="shape=hexagon;perimeter=hexagonPerimeter2;whiteSpace=wrap;html=1;fixedSize=1;rounded=1;shadow=0;strokeColor=#0F8B8D;glass=1;startSize=0;sketch=1;fontSize=20;fontFamily=Comic Sans MS;fontStyle=1;fillColor=#FAE5C7;fontColor=#143642;" vertex="1" parent="1">
          <mxGeometry x="200" y="620" width="100" height="80" as="geometry" />
        </mxCell>
        <mxCell id="lgnPLCaHQuWidmGqo9kg-46" value="存储&lt;br style=&quot;font-size: 20px;&quot;&gt;引擎" style="shape=hexagon;perimeter=hexagonPerimeter2;whiteSpace=wrap;html=1;fixedSize=1;rounded=1;shadow=0;strokeColor=#0F8B8D;glass=1;startSize=0;sketch=1;fontSize=20;fontFamily=Comic Sans MS;fontStyle=1;fillColor=#FAE5C7;fontColor=#143642;" vertex="1" parent="1">
          <mxGeometry x="320" y="620" width="100" height="80" as="geometry" />
        </mxCell>
        <mxCell id="lgnPLCaHQuWidmGqo9kg-58" style="edgeStyle=orthogonalEdgeStyle;curved=0;rounded=1;sketch=0;orthogonalLoop=1;jettySize=auto;html=1;exitX=1;exitY=0.5;exitDx=0;exitDy=0;strokeColor=#A8201A;fillColor=#FAE5C7;fontFamily=Comic Sans MS;fontSize=18;fontColor=#143642;fontStyle=1;strokeWidth=3;labelBackgroundColor=#DAD2D8;" edge="1" parent="1" source="lgnPLCaHQuWidmGqo9kg-47" target="lgnPLCaHQuWidmGqo9kg-57">
          <mxGeometry relative="1" as="geometry" />
        </mxCell>
        <mxCell id="lgnPLCaHQuWidmGqo9kg-47" value="存储&lt;br style=&quot;font-size: 20px;&quot;&gt;引擎" style="shape=hexagon;perimeter=hexagonPerimeter2;whiteSpace=wrap;html=1;fixedSize=1;rounded=1;shadow=0;strokeColor=#0F8B8D;glass=1;startSize=0;sketch=1;fontSize=20;fontFamily=Comic Sans MS;fontStyle=1;fillColor=#FAE5C7;fontColor=#143642;" vertex="1" parent="1">
          <mxGeometry x="450" y="620" width="100" height="80" as="geometry" />
        </mxCell>
        <mxCell id="lgnPLCaHQuWidmGqo9kg-48" value="" style="html=1;shadow=0;dashed=0;align=center;verticalAlign=middle;shape=mxgraph.arrows2.arrow;dy=0.6;dx=18;direction=south;notch=3;rounded=1;glass=0;sketch=1;startSize=0;fillColor=#FAE5C7;strokeColor=#0F8B8D;fontColor=#143642;" vertex="1" parent="1">
          <mxGeometry x="360" y="565" width="20" height="40" as="geometry" />
        </mxCell>
        <mxCell id="lgnPLCaHQuWidmGqo9kg-53" value="管理链接，权限验证" style="text;html=1;strokeColor=none;fillColor=none;align=left;verticalAlign=middle;whiteSpace=wrap;rounded=0;sketch=0;fontColor=#143642;fontFamily=Comic Sans MS;fontSize=18;fontStyle=1;horizontal=1;" vertex="1" parent="1">
          <mxGeometry x="620" y="220" width="170" height="40" as="geometry" />
        </mxCell>
        <mxCell id="lgnPLCaHQuWidmGqo9kg-54" value="词法分析，语法分析" style="text;html=1;strokeColor=none;fillColor=none;align=left;verticalAlign=middle;whiteSpace=wrap;rounded=0;sketch=0;fontColor=#143642;fontFamily=Comic Sans MS;fontSize=18;fontStyle=1;horizontal=1;" vertex="1" parent="1">
          <mxGeometry x="620" y="310" width="170" height="40" as="geometry" />
        </mxCell>
        <mxCell id="lgnPLCaHQuWidmGqo9kg-55" value="执行计划生成，索引选择" style="text;html=1;strokeColor=none;fillColor=none;align=left;verticalAlign=middle;whiteSpace=wrap;rounded=0;sketch=0;fontColor=#143642;fontFamily=Comic Sans MS;fontSize=18;fontStyle=1;horizontal=1;" vertex="1" parent="1">
          <mxGeometry x="620" y="400" width="200" height="40" as="geometry" />
        </mxCell>
        <mxCell id="lgnPLCaHQuWidmGqo9kg-56" value="操作引擎，返回结果" style="text;html=1;strokeColor=none;fillColor=none;align=left;verticalAlign=middle;whiteSpace=wrap;rounded=0;sketch=0;fontColor=#143642;fontFamily=Comic Sans MS;fontSize=18;fontStyle=1;horizontal=1;" vertex="1" parent="1">
          <mxGeometry x="620" y="480" width="200" height="40" as="geometry" />
        </mxCell>
        <mxCell id="lgnPLCaHQuWidmGqo9kg-57" value="存储数据，提供读写接口" style="text;html=1;strokeColor=none;fillColor=none;align=left;verticalAlign=middle;whiteSpace=wrap;rounded=0;sketch=0;fontColor=#143642;fontFamily=Comic Sans MS;fontSize=18;fontStyle=1;horizontal=1;" vertex="1" parent="1">
          <mxGeometry x="620" y="630" width="210" height="40" as="geometry" />
        </mxCell>
        <mxCell id="lgnPLCaHQuWidmGqo9kg-59" value="命中则直接调用precheck并返回结果" style="text;html=1;strokeColor=none;fillColor=none;align=left;verticalAlign=middle;whiteSpace=wrap;rounded=0;sketch=0;fontColor=#143642;fontFamily=Comic Sans MS;fontSize=18;fontStyle=1;horizontal=0;rotation=90;" vertex="1" parent="1">
          <mxGeometry x="72.5" y="260" width="105" height="95" as="geometry" />
        </mxCell>
        <mxCell id="lgnPLCaHQuWidmGqo9kg-60" value="调用优化器之前会先precheck检查权限" style="text;html=1;strokeColor=none;fillColor=none;align=left;verticalAlign=middle;whiteSpace=wrap;rounded=0;sketch=0;fontColor=#143642;fontFamily=Comic Sans MS;fontSize=18;fontStyle=1;horizontal=0;rotation=90;" vertex="1" parent="1">
          <mxGeometry x="790" y="280" width="105" height="95" as="geometry" />
        </mxCell>
      </root>
    </mxGraphModel>
  </diagram>
</mxfile>
